# xmcd
#
# Track frame offsets: 
#        150
#        15195
#        32807
#        52667
#        74557
#        94775
#        116632
#        133370
#        152850
#        173492
#
# Disc length: 2702 seconds
#
# Revision: 6
# Processed by: cddbd v1.5.2PL0 Copyright (c) Steve Scherf et al.
# Submitted via: ExactAudioCopy v1.3
#
DISCID=7c0a8c0a
DTITLE=岡崎律子 - おはよう
DYEAR=1998
DGENRE=JPop
TTITLE0=おはよう
TTITLE1=愛すべき明日
TTITLE2=ひとりではつまらない
TTITLE3=June
TTITLE4=シンシア・愛する人
TTITLE5=青空
TTITLE6=電話をちょうだいね
TTITLE7=春が来た
TTITLE8=Good Luck!
TTITLE9=仲なおり
EXTD=YEAR: 1998
EXTT0=
EXTT1=
EXTT2=
EXTT3=
EXTT4=
EXTT5=
EXTT6=
EXTT7=
EXTT8=
EXTT9=
PLAYORDER=
